# xmcd
#
# Track frame offsets:
#	150
#	15510
#	39570
#	59860
#	73212
#	88250
#	104347
#	119677
#	133707
#	150630
#	165520
#
# Disc length: 2411 seconds
#
# Revision: 0
# Processed by: cddbd v1.5.2PL0 Copyright (c) Steve Scherf et al.
# Submitted via: EasyCDDAExtractor 10.2.0.1
#
DISCID=9d09690b
DTITLE=The Cooke Brothers - On My Way To Heaven
DYEAR=2000
DGENRE=Gospel
TTITLE0=I'm On My Way To Heaven
TTITLE1=The Foot Of The Cross
TTITLE2=I Cried Holy
TTITLE3=By Heart
TTITLE4=My Anchored My Soul
TTITLE5=I'm Going To Reach Heaven
TTITLE6=Saving Grace
TTITLE7=But For The Blood
TTITLE8=Somewhere Around God's Throne
TTITLE9=The Begger And The King
TTITLE10=That's All That Matters To Me
EXTD=
EXTT0=
EXTT1=
EXTT2=
EXTT3=
EXTT4=
EXTT5=
EXTT6=
EXTT7=
EXTT8=
EXTT9=
EXTT10=
PLAYORDER=
